<svg width="30" height="30" viewBox="0 0 30 30" fill="none" xmlns="http://www.w3.org/2000/svg">
<path d="M28.5938 13.125C28.418 12.832 26.683 12.0826 26.683 12.0826C26.9848 11.9268 27.191 11.8945 27.191 11.25C27.191 10.5469 27.1875 10.3125 26.7188 10.3125H25.1285C25.1221 10.2984 25.115 10.2838 25.1086 10.2691C24.082 8.02734 23.9443 7.46074 22.4133 6.69785C20.3596 5.67656 16.5094 5.625 15 5.625C13.4906 5.625 9.64043 5.67656 7.58848 6.69785C6.05566 7.45957 6.09375 7.85156 4.89316 10.2691C4.89316 10.2756 4.88086 10.2926 4.86973 10.3125H3.27773C2.8125 10.3125 2.80898 10.5469 2.80898 11.25C2.80898 11.8945 3.01523 11.9268 3.31699 12.0826C3.31699 12.0826 1.64062 12.8906 1.40625 13.125C1.17188 13.3594 0.9375 15 0.9375 17.8125C0.9375 20.625 1.17188 23.4375 1.17188 23.4375H1.87148C1.87148 24.2578 1.99219 24.375 2.34375 24.375H7.03125C7.38281 24.375 7.5 24.2578 7.5 23.4375H22.5C22.5 24.2578 22.6172 24.375 22.9688 24.375H27.7734C28.0078 24.375 28.125 24.1992 28.125 23.4375H28.8281C28.8281 23.4375 29.0625 20.5664 29.0625 17.8125C29.0625 15.0586 28.7695 13.418 28.5938 13.125ZM7.33945 15.7582C6.27229 15.8749 5.19969 15.9347 4.12617 15.9375C2.92969 15.9375 2.88867 16.0143 2.8043 15.2672C2.77256 14.9253 2.78259 14.5807 2.83418 14.2412L2.87109 14.0625H3.04688C3.75 14.0625 4.41035 14.0924 5.65723 14.4598C6.2914 14.6501 6.88789 14.9486 7.42031 15.3422C7.67578 15.5273 7.73438 15.7031 7.73438 15.7031L7.33945 15.7582ZM21.8215 19.977L21.5625 20.625H8.4375C8.4375 20.625 8.46035 20.5893 8.14453 19.9699C7.91016 19.5117 8.20313 19.2188 8.6666 19.0523C9.56426 18.7289 12.1875 17.8125 15 17.8125C17.8125 17.8125 20.4879 18.6023 21.3574 19.0523C21.6797 19.2188 22.0799 19.3359 21.8215 19.9805V19.977ZM6.76289 11.9771C6.57363 11.9881 6.38393 11.9894 6.19453 11.9812C6.34746 11.7094 6.43242 11.4064 6.58184 11.09C7.05059 10.0939 7.58672 8.9666 8.54121 8.49141C9.92051 7.80469 12.7793 7.49531 15 7.49531C17.2207 7.49531 20.0795 7.80234 21.4588 8.49141C22.4133 8.9666 22.9471 10.0945 23.4182 11.09C23.5688 11.4094 23.6525 11.7146 23.8096 11.9883C23.6924 11.9947 23.5576 11.9883 23.2359 11.9771H6.76289ZM27.1371 15.2648C27.0117 15.9961 27.1289 15.9375 25.8738 15.9375C24.8003 15.9347 23.7277 15.8749 22.6605 15.7582C22.4936 15.7283 22.4461 15.4465 22.5797 15.3422C23.1094 14.9442 23.7067 14.6453 24.3428 14.4598C25.5896 14.0924 26.2916 14.0432 26.9848 14.0678C27.0313 14.0695 27.0756 14.0885 27.109 14.1209C27.1424 14.1534 27.1627 14.1971 27.1658 14.2436C27.1989 14.5846 27.1893 14.9285 27.1371 15.2672V15.2648Z" fill="#26A69A"/>
</svg>
